<?xml version="1.0" encoding="utf-8"?>
<!-- Generator: Adobe Illustrator 21.0.0, SVG Export Plug-In . SVG Version: 6.00 Build 0)  -->
<svg version="1.1" id="图层_1" xmlns="http://www.w3.org/2000/svg" xmlns:xlink="http://www.w3.org/1999/xlink" x="0px" y="0px"
	 viewBox="0 0 97.2 108.5" style="enable-background:new 0 0 97.2 108.5;" xml:space="preserve">
<style type="text/css">
	.st0{fill:#233245;}
	.st1{fill:#FCFCFC;}
</style>
<g>
	<path class="st0" d="M43.4,2.6L6.6,23.9c-3.3,1.9-5.3,5.4-5.3,9.2l0,42.5c0,3.8,2,7.3,5.3,9.2L43.4,106c3.3,1.9,7.4,1.9,10.7,0
		l36.8-21.2c3.3-1.9,5.3-5.4,5.3-9.2V33.1c0-3.8-2-7.3-5.3-9.2L54.1,2.6C50.8,0.7,46.7,0.7,43.4,2.6z"/>
	<g>
		<g>
			<path class="st1" d="M35.6,37.9H20.1c-1.9,0-3.5-1.6-3.5-3.5v0c0-1.9,1.6-3.5,3.5-3.5h15.5c1.9,0,3.5,1.6,3.5,3.5v0
				C39.1,36.4,37.5,37.9,35.6,37.9z"/>
			<path class="st1" d="M29.7,80.4l-11.4-6.9c-1.7-1-2.2-3.2-1.2-4.8l0,0c1-1.7,3.2-2.2,4.8-1.2l11.4,6.9c1.7,1,2.2,3.2,1.2,4.8h0
				C33.5,80.8,31.3,81.4,29.7,80.4z"/>
			<path class="st1" d="M16.5,70.5V34.5c0-1.9,1.6-3.5,3.5-3.5h0c1.9,0,3.5,1.6,3.5,3.5v36.1c0,1.9-1.6,3.5-3.5,3.5h0
				C18.1,74,16.5,72.5,16.5,70.5z"/>
		</g>
		<g>
			<path class="st1" d="M61.9,37.9h15.5c1.9,0,3.5-1.6,3.5-3.5v0c0-1.9-1.6-3.5-3.5-3.5H61.9c-1.9,0-3.5,1.6-3.5,3.5v0
				C58.4,36.4,59.9,37.9,61.9,37.9z"/>
			<path class="st1" d="M67.8,80.4l11.4-6.9c1.7-1,2.2-3.2,1.2-4.8l0,0c-1-1.7-3.2-2.2-4.8-1.2l-11.4,6.9c-1.7,1-2.2,3.2-1.2,4.8h0
				C64,80.8,66.1,81.4,67.8,80.4z"/>
			<path class="st1" d="M80.9,70.5V34.5c0-1.9-1.6-3.5-3.5-3.5l0,0c-1.9,0-3.5,1.6-3.5,3.5v36.1c0,1.9,1.6,3.5,3.5,3.5l0,0
				C79.3,74,80.9,72.5,80.9,70.5z"/>
		</g>
		<path class="st1" d="M41.7,73.6L41.7,73.6c-1.9-0.9-2.7-3.2-1.8-5.1l11.7-24.7c0.9-1.9,3.2-2.7,5.1-1.8l0,0
			c1.9,0.9,2.7,3.2,1.8,5.1L46.8,71.7C45.9,73.6,43.6,74.4,41.7,73.6z"/>
	</g>
</g>
</svg>
